<svg width="412" height="449" viewBox="0 0 412 449" fill="none" xmlns="http://www.w3.org/2000/svg">
<path fill-rule="evenodd" clip-rule="evenodd" d="M80.8094 21.1257C48.6724 3.71669 10.4775 30.4609 15.8455 66.6143L64.7356 395.822L57.3199 396.924L64.7357 395.823C70.8313 436.871 124.888 447.83 146.461 412.431L146.462 412.43L213.278 302.798C213.278 302.797 213.278 302.797 213.278 302.797C218.129 294.837 226.085 289.267 235.224 287.431L361.098 262.14L361.098 262.14C401.74 253.976 409.931 199.431 373.442 179.664L376.791 173.482L373.442 179.664L80.8097 21.1258C80.8096 21.1258 80.8095 21.1258 80.8094 21.1257ZM1.00811 68.8173C-6.17561 20.4346 44.9468 -15.3613 87.9544 7.93675L87.9547 7.93689L380.587 166.475C429.387 192.912 418.476 265.914 364.053 276.846C364.053 276.846 364.052 276.846 364.052 276.846L238.178 302.137L238.177 302.138C233.142 303.149 228.759 306.218 226.087 310.603L226.087 310.603L159.27 420.236C130.382 467.64 58.0508 452.924 49.8984 398.026L1.00814 68.8175L1.00811 68.8173Z" fill="#CC9A76"/>
</svg>
