<svg width="476" height="377" viewBox="0 0 476 377" fill="none" xmlns="http://www.w3.org/2000/svg">
<path fill-rule="evenodd" clip-rule="evenodd" d="M185.214 0.828147C178.271 1.97668 175.509 3.27927 180.016 3.27927C184.041 3.27927 192.949 5.7933 198.457 8.48325C208.357 13.318 215.518 20.1236 224.152 32.9043C230.623 42.4836 285.184 133.62 313.103 181.485C347.666 240.741 363.424 267.646 365.156 270.36C366.275 272.115 371.809 281.549 377.451 291.325C389.355 311.949 393.673 318.277 400.331 324.858C407.863 332.305 417.919 337.292 430.871 340.003L436.579 341.198L442.232 333.433C445.341 329.162 448.071 325.182 448.298 324.59C448.574 323.874 445.876 322.971 440.228 321.891C430.498 320.031 422.181 316.584 417.487 312.469C412.391 307.997 408.639 302.07 383.337 258.51C379.406 251.742 374.151 242.718 371.66 238.456C369.168 234.195 365.82 228.452 364.219 225.695C362.618 222.937 357.204 213.708 352.187 205.185C347.169 196.662 337.396 180.049 330.466 168.268C310.673 134.611 300.401 117.181 297.158 111.752C295.511 108.995 293.456 105.508 292.591 104.004C288.882 97.556 259.825 49.3001 251.478 35.7291C236.666 11.6426 231.588 6.60183 217.771 2.27385C210.462 -0.0159382 194.579 -0.721469 185.214 0.828147ZM240.788 7.84426C245.742 12.0237 252.039 20.3734 260.377 33.8158C270.791 50.6073 314.249 123.403 329.76 150.037C333.993 157.306 338.816 165.51 340.475 168.268C342.135 171.025 344.306 174.717 345.3 176.472C346.292 178.226 351.325 186.84 356.482 195.614C361.639 204.387 370.165 218.949 375.429 227.973C380.692 236.998 387.766 249.098 391.148 254.864C394.53 260.629 401.11 271.91 405.771 279.931C415.146 296.068 419.08 301.495 425.018 306.487C429.761 310.475 438.094 314.411 444.793 315.827C453.249 317.614 454.169 317.337 457.979 311.855C461.802 306.353 462.155 304.998 459.767 304.998C456.592 304.998 447.317 302.168 441.669 299.475C433.484 295.573 428.907 290.458 420.353 275.654C416.208 268.481 409.317 256.664 405.04 249.395C400.762 242.125 395.108 232.486 392.474 227.973C375.225 198.421 364.836 180.658 357.821 168.724C353.401 161.203 347.864 151.769 345.516 147.758C341.931 141.631 328.392 118.718 321.547 107.195C320.505 105.44 311.857 90.8781 302.328 74.835C274.707 28.3293 269.657 21.4079 257.22 13.0209C252.534 9.86058 245.067 6.62097 239.936 5.52166C237.443 4.9875 237.46 5.03672 240.788 7.84426ZM153.442 8.29729C136.951 12.5277 117.105 24.4607 104.479 37.7391C93.9423 48.8206 84.5502 65.1509 84.5502 72.3912C84.5502 76.6928 86.554 79.7728 90.6382 81.7472C98.522 85.5602 120.115 82.9806 145.046 75.2489L153.987 72.4751L151.191 68.9483C147.373 64.1318 144.148 56.6617 143.397 50.8926C141.987 40.0453 147.813 28.2363 156.378 24.5847C165.495 20.6988 177.854 26.3685 185.697 38.0362C187.78 41.1364 189.484 44.026 189.484 44.458C189.484 44.8901 185.481 50.8133 180.588 57.6215C175.694 64.4298 166.969 76.6645 161.198 84.81C155.426 92.9555 145.777 106.478 139.755 114.862L128.805 130.103L105.537 129.811C83.3102 129.533 82.0537 129.423 77.4521 127.349C71.4499 124.644 65.1794 117.851 62.7988 111.477C61.8252 108.871 60.7457 106.817 60.399 106.913C59.7374 107.095 50.4658 119.313 45.3377 126.759C42.4534 130.947 42.3923 131.216 43.7062 133.965C46.2529 139.289 53.2114 146.841 57.9389 149.412C67.4587 154.588 66.9103 154.562 165.024 154.579L255.079 154.595L256.499 156.621C257.28 157.735 257.92 159.376 257.92 160.267C257.92 161.808 253.742 161.887 172.375 161.886C120.186 161.886 82.9297 161.516 76.8243 160.937C59.3551 159.283 48.5724 153.942 41.2453 143.313C39.3017 140.494 37.4713 138.208 37.1784 138.233C36.8855 138.258 33.8515 142.185 30.4371 146.96L24.2295 155.639L29.3978 161.951C35.1217 168.94 44.0329 175.37 51.2451 177.716C53.7543 178.533 58.887 179.599 62.6509 180.087C66.7114 180.613 110.411 180.985 170.108 181.001L270.721 181.029L272.51 183.968C273.495 185.585 273.962 187.245 273.549 187.657C273.137 188.069 225.208 188.253 167.04 188.065C49.2185 187.684 55.4278 188.017 41.6641 181.345C36.443 178.814 33.0267 176.222 27.2544 170.413C23.0926 166.225 19.513 162.799 19.2986 162.799C19.085 162.799 17.1889 165.126 15.0857 167.97L11.2624 173.14L18.5266 180.13C30.5712 191.718 42.6934 197.143 61.1335 199.197C66.8355 199.832 106.801 200.173 175.99 200.177L282.1 200.183L283.558 202.684C284.36 204.059 285.947 206.736 287.086 208.63L289.155 212.074L172.025 211.766C67.3118 211.491 54.2662 211.301 48.9639 209.968C32.1096 205.734 20.6426 199.312 9.60082 187.923L4.49463 182.657L1.98625 185.942C-0.48198 189.176 -0.496581 189.269 1.10024 191.737C6.26574 199.722 20.722 210.432 32.0832 214.69C39.6074 217.51 52.0946 220.182 57.8605 220.205C60.4948 220.216 62.6509 220.579 62.6509 221.011C62.6509 221.443 61.4218 224.503 59.9208 227.812C52.7059 243.708 51.5954 258.939 56.729 271.581C63.984 289.448 77.4813 302.632 94.2881 308.272C115.498 315.389 138.646 310.011 171.4 290.359C193.232 277.26 203.339 273.514 215.011 274.198C220.432 274.516 223.222 275.253 228.264 277.702C233.72 280.351 236.8 282.98 249.383 295.735L264.113 310.666L266.406 306.693C267.668 304.508 271.218 298.006 274.296 292.244C280.805 280.06 280.931 281.079 271.745 271.693C250.458 249.942 227.541 244.69 203.654 256.091C198.676 258.466 184.136 268.896 181.272 272.147C179.356 274.321 170.567 280.755 165.304 283.837C154.195 290.342 137.917 293.456 125.611 291.429C112.977 289.349 100.59 280.46 95.1194 269.549C88.5706 256.487 89.3389 239.348 97.104 225.239L99.6133 220.681L196.801 220.45L293.987 220.217L296.841 225.007C298.41 227.641 300.504 231.232 301.492 232.987C302.48 234.742 304.637 238.433 306.287 241.191C307.936 243.948 319.927 264.244 332.935 286.292C345.943 308.34 358.919 329.624 361.772 333.588C369.747 344.67 380.313 354.032 390.438 358.99C402.042 364.672 415.109 368.597 417.375 367.081C417.829 366.776 421.205 362.311 424.877 357.157C428.549 352.003 431.904 347.569 432.333 347.304C434.618 345.893 432.506 344.385 426.152 342.888C415.386 340.352 404.105 334.26 396.818 327.044C389.666 319.963 384.49 312.208 368.109 284.033C361.551 272.753 353.443 258.806 350.092 253.041C341.997 239.115 323.139 206.861 315.45 193.791C312.057 188.025 305.671 177.155 301.257 169.635C296.845 162.115 291.499 153.091 289.378 149.581C287.257 146.072 281.301 136.022 276.142 127.249C256.444 93.7495 235.967 59.7281 222.987 38.9332C211.219 20.0844 200.311 11.1613 185.105 7.94726C178.735 6.60092 159.212 6.81695 153.442 8.29729ZM285.181 28.3593C298.694 42.5657 298.562 42.366 331.092 97.1677C338.383 109.451 348.508 126.579 353.591 135.23C358.675 143.881 366.879 157.828 371.825 166.222C376.77 174.617 383.196 185.587 386.106 190.6C389.016 195.614 394.891 205.664 399.161 212.933C406.81 225.956 418.84 246.484 426.139 258.966C434.262 272.857 441.241 282.907 444.996 286.118C449.929 290.336 457.357 293.159 465.05 293.741L470.981 294.189L473.491 290.561C474.871 288.565 476 286.747 476 286.521C476 286.295 473.493 285.883 470.428 285.605C462.709 284.905 454.254 280.574 447.821 274.022C444.237 270.372 438.852 262.386 429.92 247.477C422.894 235.748 416.688 225.331 416.127 224.328C415.567 223.325 412.198 217.607 408.641 211.623L402.174 200.742L406.238 195.052C408.474 191.922 410.302 189.128 410.302 188.842C410.302 188.556 406.852 188.322 402.637 188.322H394.971L393.056 185.079C392.002 183.295 391.14 181.655 391.14 181.433C391.14 181.211 396.839 181.029 403.803 181.029H416.465L422.965 171.946C426.54 166.95 429.464 162.643 429.464 162.375C429.464 162.107 418.617 161.887 405.358 161.887C392.1 161.887 380.588 161.632 379.775 161.321C378.493 160.83 375.628 156.529 375.628 155.096C375.628 154.82 389.075 154.583 405.512 154.568L435.395 154.542L439.501 148.934C441.76 145.85 445.589 140.428 448.011 136.883L452.414 130.439L406.293 130.203L360.172 129.967L359.107 127.924C357.877 125.563 343.955 101.841 330.623 79.3927C310.806 46.0222 303.889 37.3453 288.533 26.591C275.665 17.5795 275.174 17.8393 285.181 28.3593ZM198.014 82.7946C175.367 114.492 165.76 128.279 165.76 129.083C165.76 129.661 178.975 129.983 202.715 129.983C232.49 129.983 239.67 129.752 239.67 128.794C239.67 128.14 238.466 125.708 236.994 123.39C234.808 119.945 220.734 96.2243 214.136 84.862C208.819 75.7056 207.128 73.1141 206.291 72.8351C205.776 72.6638 202.051 77.1449 198.014 82.7946ZM45.2957 245.672C40.1722 254.289 38.3026 259.589 37.0352 269.098C33.6444 294.541 42.7883 316.516 60.2694 324.936C70.2035 329.719 76.3836 330.951 90.0251 330.864C100.128 330.8 103.902 330.371 111.012 328.482C120.356 326.001 136.601 319.135 154.81 309.97C174.803 299.908 183.957 296.879 194.503 296.837C210.631 296.775 223.658 305.434 247.228 331.886C249.013 333.89 250.648 335.325 250.862 335.077C251.669 334.134 261.569 315.641 261.569 315.076C261.569 314.347 238.781 291.98 233.739 287.76C224.831 280.304 213.41 277.851 201.299 280.792C193.074 282.788 188.435 284.863 177.166 291.582C164.12 299.362 162.623 300.194 152.986 305.013C131.632 315.693 114.602 318.911 97.177 315.561C74.8543 311.271 58.0521 297.711 51.5489 278.737C49.6729 273.265 49.4566 270.931 49.4393 256.005C49.4283 246.856 49.3362 239.37 49.2331 239.37C49.1299 239.369 47.3579 242.204 45.2957 245.672ZM31.9545 267.769C25.6886 279.464 24.069 286.457 24.0662 301.808C24.0626 320.522 27.4259 330.137 37.0634 338.962C42.4543 343.899 51.6794 348.634 59.9135 350.688C62.8489 351.42 69.478 351.922 75.8818 351.894C92.7442 351.824 102.568 348.134 134.28 329.962C157.932 316.407 166.433 313.224 178.991 313.223C197.186 313.221 210.926 322.466 233.739 350.063C235.747 352.492 237.526 354.831 237.693 355.262C237.861 355.693 238.339 356.045 238.757 356.045C239.677 356.045 248.942 339.605 248.589 338.6C248.451 338.209 241.836 331.109 233.89 322.823C221.218 309.609 218.638 307.363 212.903 304.558C201.499 298.98 189.116 298.677 174.387 303.616C167.524 305.917 162.595 308.27 131.999 323.847C113.591 333.218 101.563 337.503 90.526 338.621C60.9711 341.613 40.8703 328.743 33.7439 302.264C31.9399 295.56 31.6817 277.664 33.2767 269.905C33.7922 267.398 34.0724 265.207 33.8999 265.035C33.7274 264.863 32.8515 266.092 31.9545 267.769ZM14.3438 296.872C11.9851 302.35 9.72126 313.453 9.74316 319.435C9.75229 321.773 10.3463 326.452 11.0635 329.834C15.0583 348.663 28.8813 362.751 50.3326 369.853C55.7326 371.64 58.6233 371.969 69.0382 371.982C82.28 371.997 87.2612 371.115 97.6122 366.92C106.697 363.238 112.293 359.585 127.262 347.566C146.823 331.862 155.879 328.023 171.305 328.898C187.84 329.836 204.848 343.271 223.262 369.94L228.136 377L231.22 371.534L234.303 366.069L229.718 359.461C216.908 341.002 202.141 327.964 188.518 323.083C183.691 321.354 180.848 320.984 172.604 321.014C157.868 321.068 149.543 324.375 125.571 339.699C109.389 350.043 100.638 354.471 92.3062 356.533C84.5886 358.442 69.8786 358.691 62.1947 357.043C41.5875 352.621 24.1319 339.015 18.2282 322.773C16.9106 319.15 16.5776 315.552 16.6022 305.226C16.6195 298.083 16.5675 292.237 16.4863 292.237C16.406 292.237 15.4415 294.323 14.3438 296.872Z" fill="#FF6060"/>
</svg>
