<svg width="590" height="403" viewBox="0 0 590 403" fill="none" xmlns="http://www.w3.org/2000/svg">
<g clip-path="url(#clip0_86_8)">
<path d="M0 124.826V313.44C0 337.656 -1.95337e-06 349.764 9.27911 358.879C18.5579 367.996 34.7808 371.825 67.2262 379.482L105.398 388.49C150.201 399.065 172.602 404.353 195.156 402.213C195.649 402.167 196.142 402.118 196.633 402.063V77.2026C192.934 77.5939 189.204 77.8357 185.461 77.9262C167.79 78.3534 150.302 74.226 115.326 65.9709C69.5127 55.1583 46.6063 49.7519 29.1767 55.2421C22.9887 57.1913 17.4361 60.025 12.8677 63.5653C3.90674e-06 73.5368 0 90.6332 0 124.826Z" fill="#A07DCC"/>
<path d="M589.899 277.542V88.9265C589.899 64.711 589.899 52.6028 580.621 43.4874C571.34 34.372 555.118 30.543 522.673 22.8853L484.5 13.8761C439.697 3.30181 417.298 -1.98534 394.744 0.153193C394.249 0.199834 393.757 0.250187 393.266 0.30379V325.165C396.966 324.773 400.695 324.532 404.438 324.441C422.109 324.014 439.596 328.142 474.574 336.396C520.386 347.209 543.293 352.616 560.722 347.126C566.909 345.177 572.464 342.343 577.032 338.802C589.899 328.831 589.899 311.734 589.899 277.542Z" fill="#A07DCC"/>
<path d="M204.723 76.0926C202.048 76.5402 199.348 76.908 196.633 77.1953V402.056C218.578 399.659 238.218 390.388 276.649 372.245L321.954 350.86C352.632 336.38 367.969 329.14 385.178 326.26C387.852 325.813 390.549 325.444 393.266 325.158V0.296387C371.322 2.69481 351.681 11.9646 313.246 30.1072L267.945 51.4921C237.267 65.9724 221.93 73.2124 204.723 76.0926Z" fill="#7F64A2"/>
</g>
<defs>
<clipPath id="clip0_86_8">
<rect width="589.899" height="403" fill="white"/>
</clipPath>
</defs>
</svg>
