<svg width="450" height="454" viewBox="0 0 450 454" fill="none" xmlns="http://www.w3.org/2000/svg">
<path fill-rule="evenodd" clip-rule="evenodd" d="M224.97 15.9375C186.862 15.9375 151.155 26.1992 120.4 44.1244C116.619 46.3281 111.78 45.0263 109.593 41.2167C107.406 37.4072 108.698 32.5325 112.479 30.3288C145.577 11.0382 184.007 0 224.97 0C349.216 0 449.939 101.482 449.939 226.667C449.939 351.85 349.216 453.333 224.97 453.333C100.722 453.333 0 351.85 0 226.667C0 185.395 10.9555 146.675 30.1017 113.328C32.2889 109.518 37.1271 108.216 40.9082 110.42C44.6892 112.624 45.9813 117.498 43.7941 121.308C26.0031 152.295 15.8182 188.271 15.8182 226.667C15.8182 343.048 109.458 437.396 224.97 437.396C340.48 437.396 434.121 343.048 434.121 226.667C434.121 110.284 340.48 15.9375 224.97 15.9375ZM137.922 166.245C142.793 158.884 150.39 153.089 159.852 153.089C169.313 153.089 176.91 158.884 181.781 166.245C186.688 173.662 189.467 183.449 189.467 193.862C189.467 204.275 186.688 214.062 181.781 221.479C176.91 228.84 169.313 234.635 159.852 234.635C150.39 234.635 142.793 228.84 137.922 221.479C133.015 214.062 130.236 204.275 130.236 193.862C130.236 183.449 133.015 173.662 137.922 166.245ZM268.158 166.245C273.029 158.884 280.627 153.089 290.088 153.089C299.549 153.089 307.147 158.884 312.017 166.245C316.925 173.662 319.703 183.449 319.703 193.862C319.703 204.274 316.925 214.061 312.017 221.478C307.147 228.84 299.549 234.635 290.088 234.635C280.626 234.635 273.029 228.84 268.158 221.478C263.251 214.061 260.473 204.274 260.473 193.862C260.473 183.449 263.251 173.662 268.158 166.245ZM296.442 309.401C299.043 312.936 298.307 317.927 294.797 320.548C275.052 335.293 250.969 343.984 224.97 343.984C198.971 343.984 174.887 335.293 155.142 320.548C151.633 317.927 150.896 312.936 153.498 309.401C156.099 305.865 161.052 305.123 164.561 307.744C181.733 320.567 202.547 328.047 224.97 328.047C247.393 328.047 268.206 320.567 285.378 307.744C288.888 305.123 293.841 305.865 296.442 309.401Z" fill="#79CCD1"/>
</svg>
