<svg width="439" height="470" viewBox="0 0 439 470" fill="none" xmlns="http://www.w3.org/2000/svg">
<path fill-rule="evenodd" clip-rule="evenodd" d="M115.442 16.1906C94.4013 16.1906 85.4514 16.261 77.9406 18.3239C61.5742 22.819 47.8911 34.0618 40.2894 49.2437C36.802 56.2087 34.9795 64.9765 30.8523 85.6512L17.3246 153.415C9.76542 191.282 38.6731 226.667 77.2936 226.667C108.733 226.667 135.023 202.803 138.146 171.514L139.703 155.914C139.729 155.614 139.758 155.315 139.788 155.015L153.644 16.1906H115.442ZM115.442 0.000164081C114.954 0.000164081 114.47 0.000122392 113.991 8.07029e-05C94.8317 -0.00157606 83.5555 -0.00255037 73.6931 2.70624C52.9332 8.40798 35.557 22.6747 25.8975 41.9665C21.3084 51.1315 19.0963 62.218 15.3419 81.0332C15.2476 81.5061 15.1522 81.9839 15.0559 82.4666L1.52824 150.231C-3.39221 174.879 3.89057 198.664 18.7503 215.959L18.7503 280.734C18.7502 322.934 18.7502 355.434 22.1359 380.663C25.5702 406.255 32.621 425.575 47.6248 440.606C62.6249 455.634 81.8981 462.693 107.431 466.133C132.608 469.524 165.043 469.524 207.17 469.524H231.059C273.184 469.524 305.62 469.524 330.797 466.133C356.33 462.693 375.603 455.634 390.603 440.606C405.607 425.575 412.658 406.255 416.092 380.663C419.478 355.434 419.478 322.934 419.478 280.734V215.959C434.338 198.664 441.621 174.88 436.701 150.231L423.173 82.4667L422.892 81.0557C419.134 62.2258 416.921 51.1352 412.331 41.9671C402.671 22.6755 385.295 8.40798 364.535 2.70622C354.672 -0.0025496 343.396 -0.00157528 324.237 8.07029e-05L115.442 0.000164081ZM155.743 157.432L169.841 16.1906H268.383L282.4 156.63C286.141 194.102 256.766 226.667 219.11 226.667C181.722 226.667 152.498 194.566 155.743 157.432ZM147.424 197.961C135.086 224.661 108.129 242.857 77.2936 242.857C61.4864 242.857 46.9549 238.156 34.8614 230.167V280.095C34.8614 323.065 34.8787 354.476 38.1024 378.499C41.2947 402.287 47.497 417.616 58.9993 429.139C70.5054 440.667 85.8161 446.886 109.571 450.086C122.402 451.814 137.344 452.623 155.032 453.001C154.687 452.099 154.497 451.119 154.497 450.095V381.706C154.497 371.444 154.497 363.194 155.099 356.544C155.718 349.698 157.026 343.756 160.128 338.372C163.816 331.973 169.121 326.659 175.503 322.968C180.869 319.864 186.79 318.556 193.617 317.936C200.251 317.333 208.483 317.333 218.729 317.333H219.499C229.745 317.333 237.977 317.333 244.612 317.936C251.438 318.556 257.359 319.864 262.725 322.968C269.107 326.659 274.411 331.972 278.099 338.371C281.202 343.756 282.51 349.697 283.129 356.544C283.731 363.194 283.731 371.444 283.731 381.706V450.095C283.731 451.119 283.542 452.099 283.196 453.001C300.885 452.623 315.826 451.814 328.657 450.086C352.412 446.886 367.723 440.667 379.228 429.14C390.73 417.617 396.933 402.287 400.126 378.499C403.35 354.476 403.367 323.065 403.367 280.095V230.167C391.273 238.156 376.742 242.857 360.936 242.857C330.095 242.857 303.135 224.657 290.8 197.951C277.916 224.381 250.835 242.857 219.11 242.857C187.388 242.857 160.31 224.385 147.424 197.961ZM284.579 16.1906L300.082 171.514C303.206 202.803 329.495 226.667 360.936 226.667C399.555 226.667 428.464 191.282 420.904 153.415L407.377 85.6513C407.377 85.6513 407.377 85.6514 407.377 85.6513C403.25 64.9786 401.426 56.2093 397.939 49.244C390.337 34.0618 376.654 22.819 360.287 18.3239C352.776 16.261 343.827 16.1906 322.786 16.1906H284.579ZM268.243 453.223C267.842 452.261 267.62 451.204 267.62 450.095V382.095C267.62 371.354 267.612 363.841 267.084 358.01C266.567 352.291 265.601 348.992 264.157 346.486C261.89 342.55 258.623 339.276 254.689 337.001C252.18 335.55 248.875 334.58 243.161 334.061C237.337 333.532 229.834 333.524 219.114 333.524C208.394 333.524 200.891 333.532 195.067 334.061C189.353 334.58 186.049 335.549 183.54 337.001C179.606 339.275 176.34 342.549 174.071 346.485C172.627 348.991 171.661 352.291 171.144 358.01C170.616 363.841 170.608 371.354 170.608 382.095V450.095C170.608 451.204 170.387 452.261 169.985 453.223C181.498 453.332 194.058 453.333 207.802 453.333H230.426C244.17 453.333 256.73 453.332 268.243 453.223Z" fill="#CED674"/>
</svg>
